<svg width="60" height="62" viewBox="0 0 60 62" fill="none" xmlns="http://www.w3.org/2000/svg">
<path d="M10.7633 11.9071C11.5849 12.7279 12.8548 11.4571 12.0331 10.6363L9.68413 8.28979C8.86256 7.46893 7.5927 8.73986 8.4144 9.5606L10.7633 11.9071Z" fill="#222A3F" stroke="#222A3F" stroke-width="0.5"/>
<path d="M1.21846 23.0455L4.42705 23.9044C5.50971 24.194 6.00134 22.4662 4.89161 22.169L1.68302 21.3101C0.561197 21.0101 0.0965145 22.7451 1.21846 23.0455Z" fill="#222A3F" stroke="#222A3F" stroke-width="0.5"/>
<path d="M4.47896 35.7252L1.27038 36.584C0.163281 36.8804 0.661857 38.6068 1.73482 38.3194L4.94341 37.4605C6.06535 37.1602 5.60067 35.425 4.47896 35.7252Z" fill="#222A3F" stroke="#222A3F" stroke-width="0.5"/>
<path d="M10.9058 47.6726L8.55703 50.019C7.73521 50.8398 9.00518 52.1107 9.82664 51.2898L12.1754 48.9434C12.9971 48.1228 11.7274 46.8517 10.9058 47.6726Z" fill="#222A3F" stroke="#222A3F" stroke-width="0.5"/>
<path d="M49.2504 47.532C48.429 46.711 47.1591 47.9822 47.9808 48.8028L50.3296 51.1492C51.1511 51.9701 52.421 50.6992 51.5992 49.8784L49.2504 47.532Z" fill="#222A3F" stroke="#222A3F" stroke-width="0.5"/>
<path d="M58.7958 36.3926L55.5872 35.5338C54.4653 35.2336 54.001 36.9688 55.1228 37.2691L58.3314 38.128C59.4139 38.4178 59.9054 36.6897 58.7958 36.3926Z" fill="#222A3F" stroke="#222A3F" stroke-width="0.5"/>
<path d="M55.303 23.744C55.3799 23.744 55.4581 23.7341 55.5358 23.7132L58.7444 22.8543C59.8663 22.5539 59.4015 20.8179 58.2798 21.1189L55.0713 21.9778C54.0661 22.2469 54.2994 23.744 55.303 23.744Z" fill="#222A3F" stroke="#222A3F" stroke-width="0.5"/>
<path d="M48.4756 12.0293C48.7053 12.0293 48.935 11.9417 49.1105 11.7665L51.4593 9.41998C52.281 8.59924 51.0113 7.32831 50.1896 8.14917L47.8408 10.4957C47.3071 11.0286 47.7214 12.0293 48.4756 12.0293Z" fill="#222A3F" stroke="#222A3F" stroke-width="0.5"/>
<path d="M36.4626 5.26492C36.9024 5.38301 37.444 5.0733 37.5629 4.63005L38.4227 1.4247C38.7234 0.302873 36.9884 -0.162408 36.6875 0.959178L35.8278 4.16453C35.6993 4.64382 35.9835 5.13641 36.4626 5.26492Z" fill="#222A3F" stroke="#222A3F" stroke-width="0.5"/>
<path d="M22.258 4.68181C22.5538 5.78399 24.2949 5.34171 23.9931 4.21629L23.1333 1.01094C22.8323 -0.110651 21.0973 0.354631 21.3982 1.47646L22.258 4.68181Z" fill="#222A3F" stroke="#222A3F" stroke-width="0.5"/>
<path d="M50.0569 22.7677C50.0569 18.7381 47.3053 15.3385 43.5809 14.3456C43.3147 12.7485 42.5219 11.2846 41.3148 10.1796C37.8945 6.96045 32.1475 8.0036 30.008 12.0448C29.813 11.6892 29.5878 11.3492 29.3343 11.0297C27.4971 8.71355 24.3608 7.7267 21.5298 8.57295C18.8823 9.36459 16.8893 11.6492 16.4342 14.3496C14.9145 14.7569 13.5115 15.5705 12.4065 16.7135C11.6014 17.5466 12.8878 18.8002 13.6981 17.9622C14.9966 16.619 16.8129 15.8488 18.6816 15.8488C19.8703 15.808 19.8706 14.0933 18.6816 14.0524H18.3408C18.8501 12.2823 20.247 10.8316 22.0445 10.2941C24.1778 9.65597 26.542 10.4003 27.9271 12.1462C28.6563 13.0653 29.0729 14.2081 29.109 15.3809L29.1089 44.4873C29.0418 46.6148 27.6988 48.5706 25.725 49.3896C23.6786 50.2391 21.1932 49.7173 19.6579 48.1173C19.0353 47.4687 18.5831 46.675 18.3393 45.8191H18.6814C19.8287 45.8191 19.8512 44.0523 18.7043 44.0229C15.9975 43.9538 13.6152 42.509 12.4869 40.2527C12.0122 39.3032 11.8843 38.3838 11.742 37.3476C11.6598 33.8507 11.6942 30.3302 11.7275 26.9248C11.7419 25.4538 11.7567 23.9328 11.7623 22.4182C11.7668 21.2564 9.97044 21.2511 9.96589 22.4114C9.94744 27.4555 9.82708 32.3335 9.9472 37.4422C10.0404 41.2063 12.75 44.5681 16.4296 45.498C16.6663 46.9422 17.3418 48.2989 18.3616 49.3614C19.3889 50.4319 20.7059 51.1375 22.1091 51.4357C22.0757 52.1699 22.3219 52.8953 22.8169 53.4419C21.3362 55.043 22.3274 57.7226 24.4866 57.988C23.7999 59.7198 25.1742 61.7226 27.0474 61.6851H32.9672C34.8395 61.7227 36.216 59.7193 35.528 57.9879C37.6883 57.7221 38.6778 55.0422 37.1977 53.4418C37.6902 52.8978 37.9372 52.1765 37.9055 51.4456C40.7651 50.8805 43.1396 48.4076 43.5807 45.5259C47.3051 44.5329 50.0566 41.1332 50.0566 37.1038V22.7677H50.0569ZM32.9676 59.8887H27.0476C25.8215 59.8469 25.7979 58.0886 27.0193 58.0112H32.9959C34.2181 58.089 34.1927 59.8473 32.9676 59.8887ZM35.1705 56.2148H24.8447C23.657 56.1789 23.5793 54.4906 24.7527 54.3415C24.7833 54.3425 24.8139 54.343 24.8447 54.343H29.289C30.4504 54.343 30.4504 52.5466 29.289 52.5466H24.9493C24.3819 52.4808 24.0028 52.1844 23.9059 51.5928C24.7555 51.5626 25.6057 51.3842 26.4135 51.0489C27.9592 50.4076 29.2133 49.2408 30.0002 47.8121C31.1964 49.991 33.4758 51.4957 36.1094 51.5974C35.9662 52.382 35.5121 52.5457 34.7982 52.5466C33.6368 52.5466 33.6368 54.343 34.7982 54.343C34.9525 54.3438 35.1081 54.3466 35.2625 54.3415C36.4359 54.4908 36.3584 56.1787 35.1705 56.2148V56.2148ZM48.2604 37.1036C48.2604 40.9187 45.153 44.0225 41.3335 44.0225C40.1451 44.0631 40.1443 45.778 41.3335 45.819H41.6792C39.9051 51.7893 31.2048 50.7418 30.906 44.4863L30.9061 15.3826C31.2091 9.12422 39.9081 8.08683 41.6792 14.0523H41.3335C40.8375 14.0523 40.4353 14.4543 40.4353 14.9505C40.4353 15.4467 40.8375 15.8487 41.3335 15.8487C45.153 15.8487 48.2604 18.9525 48.2604 22.7676V37.1036Z" fill="#222A3F" stroke="#222A3F" stroke-width="0.5"/>
<path d="M41.8425 36.4795C37.8756 36.4795 34.6484 39.7039 34.6484 43.6672C34.6484 44.1634 35.0506 44.5654 35.5467 44.5654C36.0427 44.5654 36.4449 44.1634 36.4449 43.6672C36.4449 40.6946 38.8663 38.2759 41.8425 38.2759C43.029 38.2367 43.0333 36.5207 41.8425 36.4795Z" fill="#222A3F" stroke="#222A3F" stroke-width="0.5"/>
<path d="M18.1711 38.2759C21.1473 38.2759 23.5687 40.6945 23.5687 43.6672C23.5687 44.1634 23.9709 44.5654 24.4669 44.5654C24.963 44.5654 25.3651 44.1634 25.3651 43.6672C25.3651 39.7039 22.1379 36.4795 18.1711 36.4795C16.983 36.5207 16.9811 38.2343 18.1711 38.2759Z" fill="#222A3F" stroke="#222A3F" stroke-width="0.5"/>
<path d="M24.4675 16.1963C23.9714 16.1963 23.5693 16.5983 23.5693 17.0945C23.5693 20.0672 21.1479 22.4858 18.1717 22.4858C17.6756 22.4858 17.2734 22.8878 17.2734 23.384C17.2734 23.8802 17.6756 24.2822 18.1717 24.2822C22.1386 24.2822 25.3657 21.0579 25.3657 17.0945C25.3657 16.5983 24.9636 16.1963 24.4675 16.1963Z" fill="#222A3F" stroke="#222A3F" stroke-width="0.5"/>
<path d="M41.8425 22.4858C38.8663 22.4858 36.4449 20.0673 36.4449 17.0945C36.4449 16.5983 36.0427 16.1963 35.5467 16.1963C35.0506 16.1963 34.6484 16.5983 34.6484 17.0945C34.6484 21.0579 37.8757 24.2822 41.8425 24.2822C43.0305 24.2412 43.0325 22.5275 41.8425 22.4858Z" fill="#222A3F" stroke="#222A3F" stroke-width="0.5"/>
<path d="M25.1021 26.4431C24.7514 26.0922 24.1827 26.0918 23.8317 26.4425C22.8973 27.3759 22.3828 28.6162 22.3828 29.9348C22.3828 31.2535 22.8973 32.4938 23.8317 33.4272C24.6533 34.2479 25.9232 32.9771 25.1015 32.1564C23.8801 30.9852 23.8801 28.8846 25.1015 27.7133C25.4524 27.3629 25.4526 26.7941 25.1021 26.4431Z" fill="#222A3F" stroke="#222A3F" stroke-width="0.5"/>
<path d="M34.8611 33.4272C35.2844 33.7783 35.7079 33.7784 36.1314 33.4278C38.0505 31.5879 38.0505 28.2829 36.1314 26.4431C35.3098 25.6223 34.04 26.8932 34.8617 27.7139C36.0831 28.8852 36.083 30.9859 34.8617 32.157C34.5108 32.5074 34.5105 33.0762 34.8611 33.4272Z" fill="#222A3F" stroke="#222A3F" stroke-width="0.5"/>
</svg>
