<svg width="60" height="56" viewBox="0 0 60 56" fill="none" xmlns="http://www.w3.org/2000/svg">
<path d="M57.9097 12.088L49.4981 5.65438C48.6512 5.00645 47.5977 4.64973 46.5313 4.64973H44.5041C44.2965 4.06169 43.9847 3.48747 43.5838 2.95954C42.1006 1.01165 39.4466 0.2286 38.0155 1.31692C37.3192 1.84637 36.9389 2.81329 36.9724 3.96969C37.0045 5.07852 37.4092 6.19778 38.1118 7.12145C38.351 7.43563 38.6179 7.72684 38.9038 7.98665C37.8012 9.32516 36.84 10.8245 36.0331 12.4569H32.247C30.786 12.4569 29.5974 13.6455 29.5974 15.1065C29.5974 16.5675 30.786 17.7561 32.247 17.7561H34.0914C33.6046 19.659 33.3035 21.6202 33.2003 23.6038C33.1286 24.9856 31.9812 26.0681 30.5882 26.0681H23.3133C21.9068 26.0681 20.5295 25.5823 19.4353 24.7007L15.3559 21.4112C14.0843 20.3863 12.3792 20.1876 10.9055 20.8926C9.43173 21.5977 8.51615 23.0505 8.51615 24.6841V44.0916C7.42419 43.6392 6.34736 43.1477 5.28904 42.6174C3.48822 41.7152 1.28884 42.4463 0.386615 44.247C-0.515612 46.0479 0.215404 48.2471 2.01622 49.1495C9.88689 53.0932 18.6485 55.1777 27.3538 55.1777C33.0171 55.1777 38.6748 54.3065 44.1696 52.5884C44.6329 52.4436 44.891 51.9506 44.7462 51.4873C44.6013 51.024 44.1082 50.7662 43.6451 50.9108C38.3202 52.5757 32.8391 53.42 27.3538 53.42C18.9204 53.42 10.4312 51.3999 2.80372 47.5781C1.86939 47.1098 1.49017 45.9689 1.95833 45.0347C2.42638 44.1003 3.56755 43.7212 4.50177 44.1893C7.37407 45.6285 13.2005 47.7475 16.2496 46.7502C16.6663 46.7502 16.912 43.4168 18.7496 40.9168C20.5872 38.4168 26.1265 36.7533 31.8545 38.4168C37.5825 40.0804 37.8849 46.3335 38.3329 46.7502C38.7809 47.1668 45.6657 46.4642 50.2058 44.1894C51.1402 43.7212 52.2812 44.1005 52.7494 45.0347C53.2176 45.969 52.8382 47.1099 51.904 47.5781C50.4834 48.2899 49.0115 48.9487 47.5288 49.5364C47.0775 49.7152 46.8567 50.2261 47.0356 50.6772C47.2144 51.1286 47.7253 51.3492 48.1764 51.1705C49.7064 50.5641 51.2254 49.8842 52.6915 49.1496C54.4923 48.2472 55.2233 46.048 54.321 44.2472C53.4186 42.4466 51.2195 41.7153 49.4186 42.6175C48.3604 43.1478 47.2838 43.6392 46.1919 44.0915V31.9051C46.1919 27.9717 46.5754 24.6304 47.3643 21.6902C47.3782 21.6383 47.4261 21.6021 47.481 21.6021H54.688C56.9977 21.6021 58.969 20.1883 59.71 18.0004C60.4506 15.8123 59.7442 13.4916 57.9097 12.088ZM31.3549 15.1065C31.3549 14.6148 31.755 14.2147 32.2467 14.2147H39.5501C40.0418 14.2147 40.4419 14.6148 40.4419 15.1065C40.4419 15.5982 40.0418 15.9983 39.5501 15.9983H32.2467C31.755 15.9983 31.3549 15.5982 31.3549 15.1065ZM31.5287 27.7235C31.7417 28.1401 31.8545 28.5992 31.8545 29.0781C31.8545 30.7291 30.5112 32.0724 28.8601 32.0724C27.2091 32.0724 25.8658 30.7291 25.8658 29.0781C25.8658 28.642 25.9602 28.2164 26.1404 27.8258H30.5879C30.9108 27.8258 31.2253 27.7897 31.5287 27.7235ZM10.2736 33.7043C10.367 33.6956 10.4608 33.6896 10.5552 33.6896C12.2063 33.6896 13.5496 35.0329 13.5496 36.684C13.5496 38.335 12.2063 39.6784 10.5552 39.6784C10.4608 39.6784 10.367 39.6725 10.2736 39.6637V33.7043ZM44.4336 33.1963C44.1058 33.3161 43.7578 33.3798 43.4063 33.3798C41.7552 33.3798 40.4119 32.0366 40.4119 30.3854C40.4119 28.7342 41.7552 27.391 43.4063 27.391C43.8197 27.391 44.2238 27.4773 44.5978 27.64C44.4884 28.9879 44.4336 30.4059 44.4336 31.905V33.1963ZM58.0446 17.4364C57.6504 18.6004 56.5615 19.8441 54.6875 19.8441H52.6052C51.698 18.9649 51.1825 17.7591 51.1825 16.4891C51.1825 14.3102 52.7203 12.4121 54.8134 11.9327L56.8417 13.484C58.3299 14.6227 58.4388 16.2724 58.0446 17.4364Z" fill="#A1B3D6" fill-opacity="0.4"/>
<path d="M52.0831 48.4167L47.9164 50.5C47.0831 50.9167 36.2497 53.8333 31.6664 54.25C27.083 54.6667 22.083 54.25 17.9164 53.4167C13.7497 52.5833 6.24974 50.9167 3.33308 49.25C0.416409 47.5833 0.833076 46.75 0.833076 45.5C0.833076 44.25 2.08308 43.4167 3.74974 43.4167C5.41641 43.4167 11.2497 45.9167 16.6664 47.5833C22.0831 49.25 27.9164 48.4167 32.0831 48.4167C36.2497 48.4167 42.4997 46.75 46.6664 44.6667C50.8331 42.5833 50.8331 43.4167 52.4997 43.8333C53.8331 44.1667 53.8886 45.9167 53.7497 46.75L52.0831 48.4167Z" fill="#5FA9FF"/>
<path d="M57.9097 12.088L49.4981 5.65438C48.6512 5.00645 47.5977 4.64973 46.5313 4.64973H44.5041C44.2965 4.06169 43.9847 3.48747 43.5838 2.95954C42.1006 1.01165 39.4466 0.2286 38.0155 1.31692C37.3192 1.84637 36.9389 2.81329 36.9724 3.96969C37.0045 5.07852 37.4092 6.19778 38.1119 7.12145C38.351 7.43563 38.6179 7.72684 38.9038 7.98665C37.8012 9.32516 36.84 10.8245 36.0331 12.4569H32.247C30.786 12.4569 29.5974 13.6455 29.5974 15.1065C29.5974 16.5675 30.786 17.7561 32.247 17.7561H34.0914C33.6046 19.659 33.3035 21.6202 33.2003 23.6038C33.1286 24.9856 31.9812 26.0681 30.5882 26.0681H23.3133C21.9068 26.0681 20.5295 25.5823 19.4353 24.7007L15.3559 21.4112C14.0843 20.3863 12.3792 20.1876 10.9055 20.8926C9.43173 21.5977 8.51615 23.0505 8.51615 24.6841V44.0916C7.42419 43.6392 6.34736 43.1477 5.28904 42.6174C3.48822 41.7152 1.28884 42.4463 0.386615 44.247C-0.515612 46.0479 0.215404 48.2471 2.01622 49.1495C9.88689 53.0932 18.6485 55.1777 27.3538 55.1777C33.0171 55.1777 38.6748 54.3065 44.1696 52.5884C44.6329 52.4436 44.891 51.9506 44.7462 51.4873C44.6013 51.024 44.1082 50.7662 43.6451 50.9108C38.3202 52.5757 32.8391 53.42 27.3538 53.42C18.9204 53.42 10.4312 51.3999 2.80372 47.5781C1.86939 47.1098 1.49017 45.9689 1.95833 45.0347C2.42638 44.1003 3.56755 43.7212 4.50177 44.1893C11.5974 47.7446 19.5046 49.6297 27.3538 49.6297C35.4925 49.6297 43.3793 47.6098 50.2058 44.1894C51.1402 43.7212 52.2812 44.1006 52.7494 45.0347C53.2176 45.969 52.8382 47.1099 51.904 47.5781C50.4835 48.2899 49.0115 48.9487 47.5288 49.5364C47.0775 49.7152 46.8567 50.2261 47.0356 50.6772C47.2144 51.1286 47.7253 51.3492 48.1764 51.1705C49.7064 50.5641 51.2254 49.8842 52.6915 49.1496C54.4923 48.2472 55.2233 46.048 54.321 44.2472C53.4186 42.4466 51.2195 41.7153 49.4186 42.6175C48.3604 43.1478 47.2838 43.6392 46.1919 44.0915V31.9051C46.1919 27.9717 46.5754 24.6304 47.3643 21.6902C47.3782 21.6383 47.4261 21.6021 47.481 21.6021H54.688C56.9977 21.6021 58.969 20.1883 59.71 18.0004C60.4506 15.8123 59.7442 13.4916 57.9097 12.088V12.088ZM31.3549 15.1065C31.3549 14.6148 31.755 14.2147 32.2467 14.2147H39.5501C40.0418 14.2147 40.4419 14.6148 40.4419 15.1065C40.4419 15.5982 40.0418 15.9983 39.5501 15.9983H32.2467C31.755 15.9983 31.3549 15.5982 31.3549 15.1065ZM31.5287 27.7235C31.7417 28.1401 31.8545 28.5992 31.8545 29.0781C31.8545 30.7291 30.5112 32.0724 28.8601 32.0724C27.2091 32.0724 25.8658 30.7291 25.8658 29.0781C25.8658 28.642 25.9602 28.2164 26.1404 27.8258H30.5879C30.9108 27.8258 31.2253 27.7897 31.5287 27.7235V27.7235ZM10.2736 33.7043C10.367 33.6956 10.4608 33.6896 10.5552 33.6896C12.2063 33.6896 13.5496 35.0329 13.5496 36.684C13.5496 38.335 12.2063 39.6784 10.5552 39.6784C10.4608 39.6784 10.367 39.6725 10.2736 39.6637V33.7043ZM44.4336 33.1963C44.1058 33.3161 43.7578 33.3798 43.4063 33.3798C41.7552 33.3798 40.4119 32.0366 40.4119 30.3854C40.4119 28.7342 41.7552 27.391 43.4063 27.391C43.8197 27.391 44.2238 27.4773 44.5978 27.64C44.4884 28.9879 44.4336 30.4059 44.4336 31.905V33.1963ZM45.666 21.2348C45.2796 22.675 44.9869 24.2034 44.7832 25.8373C44.3398 25.7031 43.8767 25.6333 43.4063 25.6333C40.7858 25.6333 38.6541 27.7652 38.6541 30.3855C38.6541 33.0058 40.7858 35.1377 43.4063 35.1377C43.7529 35.1377 44.0972 35.0973 44.4336 35.0227V44.78C42.6476 45.4419 40.8261 46.0005 38.9817 46.453C38.9729 41.2885 34.7691 37.0896 29.6025 37.0896H25.1049C24.0929 37.0896 23.0979 37.2498 22.1475 37.5657C21.6869 37.7189 21.4376 38.2163 21.5908 38.677C21.7439 39.1377 22.2415 39.3868 22.702 39.2338C23.4734 38.9773 24.2817 38.8474 25.1049 38.8474H29.6025C33.8052 38.8474 37.2244 42.2666 37.2244 46.4693V46.8516C33.9693 47.5262 30.6561 47.8718 27.3535 47.8718C24.051 47.8718 20.7381 47.5262 17.483 46.8518V46.4693C17.483 44.5229 18.2166 42.6698 19.5486 41.2515C19.8809 40.8976 19.8635 40.3414 19.5096 40.0091C19.1558 39.677 18.5995 39.6943 18.2672 40.0481C16.6316 41.7897 15.7295 44.0639 15.7255 46.4531C13.8811 46.0006 12.0595 45.442 10.2736 44.7802V41.4273C10.3672 41.4328 10.461 41.4364 10.5552 41.4364C13.1755 41.4364 15.3074 39.3047 15.3074 36.6842C15.3074 34.0639 13.1755 31.932 10.5552 31.932C10.4611 31.932 10.3672 31.9357 10.2736 31.9412V24.684C10.2736 23.7192 10.7933 22.8947 11.6638 22.4782C12.534 22.0619 13.5018 22.1745 14.2524 22.7796L18.3319 26.0691C19.7377 27.2019 21.5067 27.8258 23.3131 27.8258H24.2782C24.1675 28.2311 24.1081 28.6511 24.1081 29.0781C24.1081 31.6984 26.2399 33.8302 28.8602 33.8302C31.4806 33.8302 33.6124 31.6984 33.6124 29.0781C33.6124 28.3491 33.4505 27.648 33.1393 27.0085C34.183 26.2613 34.8845 25.0661 34.9556 23.6948C35.0608 21.6758 35.3823 19.6816 35.9087 17.756H39.5502C41.0112 17.756 42.1998 16.5673 42.1998 15.1064C42.1998 13.6454 41.0112 12.4568 39.5502 12.4568H38.0133C38.8156 10.9795 39.7576 9.63313 40.828 8.44555C41.0015 8.25313 41.0813 7.99391 41.0459 7.73739C41.0106 7.48086 40.8639 7.25282 40.645 7.1143C40.2292 6.85133 39.837 6.48571 39.5107 6.05704C39.0355 5.43231 38.7508 4.65301 38.7295 3.91883C38.7113 3.28579 38.8921 2.85864 39.0795 2.71614C39.5489 2.35919 41.1454 2.65872 42.1847 4.02348C42.5857 4.55153 42.8604 5.1336 42.979 5.70676C43.0635 6.11481 43.4229 6.40754 43.8396 6.40754H46.5314C47.2139 6.40754 47.8882 6.63594 48.4303 7.05055L53.1482 10.6589C50.9388 11.6955 49.4249 13.9542 49.4249 16.4891C49.4249 17.688 49.7589 18.8449 50.3708 19.8441H47.4805C46.6316 19.8441 45.8855 20.4161 45.666 21.2348V21.2348ZM58.0446 17.4364C57.6504 18.6004 56.5615 19.8441 54.6876 19.8441H52.6052C51.698 18.9649 51.1825 17.7591 51.1825 16.4891C51.1825 14.3102 52.7203 12.4121 54.8134 11.9327L56.8417 13.484C58.3299 14.6227 58.4388 16.2724 58.0446 17.4364V17.4364Z" fill="#222A3F" stroke="#222A3F" stroke-width="0.3"/>
<path d="M45.7539 8.7002C45.2685 8.7002 44.875 9.09371 44.875 9.5791V10.5355C44.875 11.0209 45.2685 11.4144 45.7539 11.4144C46.2393 11.4144 46.6328 11.0209 46.6328 10.5355V9.5791C46.6328 9.09371 46.2393 8.7002 45.7539 8.7002Z" fill="#222A3F"/>
</svg>
